<?xml version="1.0" encoding="UTF-8"?>
<svg viewBox="0 0 100 100" xmlns="http://www.w3.org/2000/svg">
  <!-- Fond de ciel -->
  <rect width="100" height="100" fill="#0065bd"/>
  
  <!-- Silhouette du château d'Édimbourg -->
  <path d="M10,80 L90,80 L90,75 L10,75 Z" fill="#333333"/>
  <path d="M15,75 L20,75 L20,65 L15,65 Z" fill="#333333"/>
  <path d="M25,75 L35,75 L35,60 L25,60 Z" fill="#333333"/>
  <path d="M40,75 L50,75 L50,55 L40,55 Z" fill="#333333"/>
  <path d="M55,75 L65,75 L65,60 L55,60 Z" fill="#333333"/>
  <path d="M70,75 L85,75 L85,65 L70,65 Z" fill="#333333"/>
  
  <!-- Tours du château -->
  <path d="M27,60 L33,60 L33,55 L31,50 L29,50 L27,55 Z" fill="#333333"/>
  <path d="M42,55 L48,55 L48,48 L45,43 L42,48 Z" fill="#333333"/>
  <path d="M57,60 L63,60 L63,55 L60,50 L57,55 Z" fill="#333333"/>
  <path d="M72,65 L83,65 L83,60 L80,55 L75,55 L72,60 Z" fill="#333333"/>
  
  <!-- Fenêtres -->
  <rect x="28" y="57" width="2" height="2" fill="#f0ece6"/>
  <rect x="44" y="52" width="2" height="2" fill="#f0ece6"/>
  <rect x="59" y="57" width="2" height="2" fill="#f0ece6"/>
  <rect x="75" y="62" width="2" height="2" fill="#f0ece6"/>
  <rect x="80" y="62" width="2" height="2" fill="#f0ece6"/>
  
  <!-- Colline du château -->
  <path d="M5,75 Q50,65 95,75 L95,80 L5,80 Z" fill="#005d2f"/>
  
  <!-- Lune dans le ciel -->
  <circle cx="75" cy="25" r="10" fill="#f0ece6"/>
  <circle cx="72" cy="22" r="10" fill="#0065bd"/>
  
  <!-- Étoiles -->
  <circle cx="20" cy="15" r="1" fill="#f0ece6"/>
  <circle cx="35" cy="25" r="1" fill="#f0ece6"/>
  <circle cx="50" cy="10" r="1" fill="#f0ece6"/>
  <circle cx="65" cy="30" r="1" fill="#f0ece6"/>
  <circle cx="80" cy="15" r="1" fill="#f0ece6"/>
  <circle cx="25" cy="35" r="1" fill="#f0ece6"/>
  
  <!-- Contour circulaire -->
  <circle cx="50" cy="50" r="48" fill="none" stroke="#daa520" stroke-width="4"/>
  
  <!-- Texte "Edinburgh" en arc -->
  <path id="textPath" d="M50,90 A40,40 0 0,1 10,50 A40,40 0 0,1 50,10 A40,40 0 0,1 90,50 A40,40 0 0,1 50,90" fill="none"/>
  <text font-family="Arial, sans-serif" font-size="10" font-weight="bold" fill="#f0ece6">
    <textPath href="#textPath" startOffset="15%">EDINBURGH PLANNER</textPath>
  </text>
</svg>
